# xmcd
#
# Track frame offsets: 
#        150
#        13438
#        28785
#        41912
#        64770
#        76608
#        89605
#        91631
#        104280
#        115588
#        133322
#        148273
#        162588
#        174955
#        194547
#        208249
#
# Disc length: 3023 seconds
#
# Revision: 1
# Processed by: cddbd v1.5.2PL0 Copyright (c) Steve Scherf et al.
# Submitted via: ExactAudioCopy v1.1
#
DISCID=e50bcd10
DTITLE=The 13th Floor Elevators - Disc 04 - The Psychedelic Sounds Of 
DTITLE=The 13th Floor Elevators (Alternative Stereo)
DYEAR=2009
DGENRE=Rock
TTITLE0=You Don't Know (How Young You Are) (stereo)
TTITLE1=Through The Rhythm (stereo)
TTITLE2=Monkey Island (stereo)
TTITLE3=Roller Coaster (stereo)
TTITLE4=Fire Engine (stereo)
TTITLE5=Reverberation (Doubt) (stereo)
TTITLE6=Tried To Hide (false start) (stereo)
TTITLE7=Tried To Hide (stereo)
TTITLE8=You're Gonna Miss Me (stereo)
TTITLE9=I've Seen Your Face Before (Splash 1) (stereo)
TTITLE10=Don't Fall Down (stereo)
TTITLE11=The Kingdom Of Heaven (Is Within You) (stereo)
TTITLE12=You Don't Know (How Young You Are) (alt - backing track) (ste
TTITLE12=reo)
TTITLE13=Roller Coaster (alt - backing track) (stereo)
TTITLE14=Don't Fall Down (alt - backing track) (stereo)
TTITLE15=Don't Fall Down (Larry Kane TV show 05-27-67) (stereo)
EXTD=
EXTT0=
EXTT1=
EXTT2=
EXTT3=
EXTT4=
EXTT5=
EXTT6=
EXTT7=
EXTT8=
EXTT9=
EXTT10=
EXTT11=
EXTT12=
EXTT13=
EXTT14=
EXTT15=
PLAYORDER=
